<?xml version="1.0" encoding="utf-8"?>
<!-- Generator: Adobe Illustrator 23.0.6, SVG Export Plug-In . SVG Version: 6.00 Build 0)  -->
<svg version="1.1" id="Layer_1" xmlns="http://www.w3.org/2000/svg" xmlns:xlink="http://www.w3.org/1999/xlink" x="0px" y="0px"
	 viewBox="0 0 128 128" style="enable-background:new 0 0 128 128;" xml:space="preserve">
<style type="text/css">
	.st0{fill:#B8D8D3;}
	.st1{fill:#318FB5;}
	.st2{fill:#2086A5;}
	.st3{fill:#EABFA2;}
	.st4{fill:#172956;}
</style>
<title>CV</title>
<g>
	<g>
		<polygon class="st0" points="97.8,40 97.8,105.3 30.3,105.3 30.3,22.6 80.4,22.6 		"/>
		<polygon class="st1" points="97.8,40 80.4,40 80.4,22.6 		"/>
		<path class="st2" d="M64,49.9L64,49.9c5.5,0,10,4.5,10,10l0,0v2.9l0,0H54l0,0v-2.9C54,54.4,58.5,49.9,64,49.9z"/>
		<ellipse class="st3" cx="64" cy="43.4" rx="6.6" ry="6.5"/>
	</g>
</g>
<path class="st4" d="M28.5,66.4v-1.1c0-1,0.8-1.8,1.8-1.8s1.8,0.8,1.8,1.8v1.1c0,1-0.8,1.8-1.8,1.8S28.5,67.3,28.5,66.4z M99.5,40
	v65.3c0,1-0.8,1.7-1.8,1.8H30.3c-1,0-1.7-0.8-1.8-1.8V72.3c0-1,0.8-1.8,1.8-1.8s1.8,0.8,1.8,1.8v31.3h64V41.8H80.4
	c-1,0-1.7-0.8-1.8-1.8V24.4H32v34c0,1-0.8,1.8-1.8,1.8c-1,0-1.8-0.8-1.8-1.8V22.6c0-1,0.8-1.7,1.8-1.8h50.2c0.5,0,0.9,0.2,1.2,0.5
	L99,38.8C99.3,39.1,99.5,39.6,99.5,40z M93.5,38.3L82.2,26.9v11.4H93.5z M58.5,49.5c-3.4-3.1-3.7-8.3-0.7-11.7
	c3.1-3.4,8.3-3.7,11.7-0.7c3.7,3.3,3.7,9.1,0,12.4c3.8,2,6.2,6,6.2,10.3v2.9c0,1-0.8,1.8-1.8,1.8l0,0H54c-1,0-1.8-0.8-1.8-1.8l0,0
	v-2.9C52.3,55.5,54.7,51.6,58.5,49.5z M64,48.1c2.6,0,4.8-2.2,4.8-4.8s-2.2-4.8-4.8-4.8c-2.6,0-4.8,2.1-4.8,4.8
	C59.2,46,61.4,48.1,64,48.1z M55.8,61.1h16.5v-1.2c0-3.9-2.7-7.2-6.5-8v5.6c0,1-0.8,1.8-1.8,1.8s-1.8-0.8-1.8-1.8l0,0v-5.6
	c-3.8,0.8-6.5,4.2-6.5,8V61.1z M42,70.8c0,1,0.8,1.8,1.8,1.8H54c1,0,1.8-0.8,1.8-1.8S55,69.1,54,69.1H43.8
	C42.8,69.1,42,69.9,42,70.8z M59.1,70.8c0,1,0.8,1.7,1.7,1.8c0,0,0,0,0,0h23.4c1,0,1.8-0.8,1.8-1.8s-0.8-1.8-1.8-1.8H60.8
	C59.8,69.1,59.1,69.9,59.1,70.8z M43.8,79.6h40.5c1,0,1.8-0.8,1.8-1.8s-0.8-1.8-1.8-1.8H43.8c-1,0-1.8,0.8-1.8,1.8
	S42.8,79.6,43.8,79.6z M43.8,86.6h28.9c1,0,1.8-0.8,1.8-1.8s-0.8-1.8-1.8-1.8H43.8c-1,0-1.8,0.8-1.8,1.8S42.8,86.6,43.8,86.6z
	 M84.3,83.1H79c-1,0-1.8,0.8-1.8,1.8s0.8,1.8,1.8,1.8h5.2c1,0,1.8-0.8,1.8-1.8S85.2,83.1,84.3,83.1z M43.8,93.6H54
	c1,0,1.8-0.8,1.8-1.8S55,90.1,54,90.1l0,0H43.8c-1,0-1.8,0.8-1.8,1.8S42.8,93.6,43.8,93.6z M84.3,90.1H60.8c-1,0-1.8,0.8-1.8,1.8
	s0.8,1.8,1.8,1.8l0,0h23.4c1,0,1.8-0.8,1.8-1.8S85.2,90.1,84.3,90.1z"/>
</svg>
